<?xml version="1.0" encoding="utf-8"?>
<!-- Generator: Adobe Illustrator 27.8.1, SVG Export Plug-In . SVG Version: 6.00 Build 0)  -->
<svg version="1.1" id="Layer_1" xmlns="http://www.w3.org/2000/svg" xmlns:xlink="http://www.w3.org/1999/xlink" x="0px" y="0px"
	 viewBox="0 0 1426.3 236.7" style="enable-background:new 0 0 1426.3 236.7;" xml:space="preserve">
<style type="text/css">
	.st0{fill:#010E3E;}
</style>
<rect x="1394.1" y="65.8" class="st0" width="30.5" height="166.1"/>
<path class="st0" d="M1078.1,231.9v-93.4c0-26.5-19.8-46.5-46-46.5c-22.4,0-45.1,17.1-45.1,49.8v90.1h-30.5V7.9l30.5-0.1
	c0,0-0.1,72,0,71.9c4.1-3.4,19.9-17.5,51.3-17.5c38.3,0,70.6,31.9,70.6,69.7v100L1078.1,231.9L1078.1,231.9z"/>
<rect x="1394.1" y="7.8" class="st0" width="30.5" height="30.5"/>
<rect x="1139.7" y="201.2" class="st0" width="30.7" height="30.7"/>
<path class="st0" d="M228.8,107.6c2.1,3.1,3.2,6.7,3.2,10.4c0,5-2,9.8-5.5,13.3c-3.5,3.5-8.3,5.5-13.3,5.5c-3.7,0-7.3-1.1-10.4-3.2
	c-3.1-2.1-5.5-5-6.9-8.4c-1.4-3.4-1.8-7.2-1.1-10.8c0.7-3.6,2.5-7,5.1-9.6c2.6-2.6,6-4.4,9.6-5.1c3.6-0.7,7.4-0.4,10.8,1.1
	C223.8,102.1,226.7,104.5,228.8,107.6L228.8,107.6z"/>
<path class="st0" d="M228.8,202.6c2.1,3.1,3.2,6.7,3.2,10.4c0,5-2,9.8-5.5,13.3c-3.5,3.5-8.3,5.5-13.3,5.5c-3.7,0-7.3-1.1-10.4-3.2
	c-3.1-2.1-5.5-5-6.9-8.4c-1.4-3.4-1.8-7.2-1.1-10.8c0.7-3.6,2.5-7,5.1-9.6c2.6-2.6,6-4.4,9.6-5.1c3.6-0.7,7.4-0.4,10.8,1.1
	C223.8,197.1,226.7,199.5,228.8,202.6L228.8,202.6z"/>
<rect x="186.9" y="1.8" class="st0" width="45" height="45"/>
<path class="st0" d="M135.2,202.6c2.1,3.1,3.2,6.7,3.2,10.4c0,5-2,9.8-5.5,13.3c-3.5,3.5-8.3,5.5-13.3,5.5c-3.7,0-7.3-1.1-10.4-3.2
	c-3.1-2.1-5.5-5-6.9-8.4c-1.4-3.4-1.8-7.2-1.1-10.8c0.7-3.6,2.5-7,5.1-9.6c2.6-2.6,6-4.4,9.6-5.1c3.6-0.7,7.4-0.4,10.8,1.1
	C130.2,197.1,133.1,199.5,135.2,202.6L135.2,202.6z"/>
<rect x="97.1" y="95.5" class="st0" width="45" height="45"/>
<rect x="95.8" y="1.8" class="st0" width="47.5" height="47.5"/>
<rect x="2.1" y="1.8" class="st0" width="50" height="50"/>
<rect x="1.9" y="186.7" class="st0" width="45" height="45"/>
<rect x="1.9" y="94.3" class="st0" width="47.5" height="47.5"/>
<path class="st0" d="M421,29c13.4,0.2,18.8,10,18.8,10l19.4-19.4l0,0l0.1-0.1C448,7.4,434.2,0.7,420.2,0.7
	c-13.6,0-24.9,4.4-33.5,12.9c-8.6,8.6-12.9,19.8-12.9,33.2v18.9h-26.1v26.2h26v139.9h30.5V92.1H459V65.8h-54.7V46.9
	C404.4,35.9,410.2,29.7,421,29L421,29z"/>
<path class="st0" d="M867.2,205.7c-33,0-57-23.8-57-56.6c0-32.3,24.7-56.6,57.4-56.6c18.1,0,32.3,10.4,38.4,15.9L927,87.4
	c-6-5.8-28.3-25.2-60.8-25.2c-48.9,0-87.2,38.2-87.2,86.9c0,48.5,38.3,86.5,87.2,86.5c31.2,0,52.2-17,60.6-25.3l-20.3-20.3
	C899.1,196.9,885.9,205.7,867.2,205.7L867.2,205.7z"/>
<path class="st0" d="M726.9,207.4c-10.2,0-17.9-6.9-17.9-26.7V92.1h54.8V65.9H709V32h-30.5v148.7c0,37.6,17.3,54.6,48.1,54.6
	c11.4,0,25.5-4.5,37.8-14.7L745,201.3C740.2,205.2,733.7,207.4,726.9,207.4L726.9,207.4z"/>
<path class="st0" d="M561.4,205c-29.7,0-51.1-21.8-55.4-44.3h123v0h17.8c0.5-3.9,0.8-7.8,0.8-11.8c0-47.9-38.9-86.8-86.8-86.8
	s-86.8,38.9-86.8,86.8s38.9,86.8,86.8,86.8c28.8,0,52.5-10.3,68.9-26.3l-19-21.4C597.6,199.6,581,205,561.4,205L561.4,205z
	 M561.4,92.2c27.7,0,47.9,19.1,53.7,42.3H506.6C512.9,110.3,533.5,92.2,561.4,92.2z"/>
<path class="st0" d="M1326,65.8l0,18c0,0-20-21.7-55.2-21.7c-47.8,0-86.6,38.5-86.6,85.8c0,49.1,37.5,87.5,85.3,87.5
	c39.9,0,56.6-21.8,56.6-21.8l-0.1,18.3h30.5V65.8H1326z M1273.5,205.5c-1,0.1-2,0.1-3,0.1c-15.7,0-29.9-6.4-40.2-16.7
	c-10.3-10.3-16.7-24.5-16.7-40.2c0-31.4,25.6-56.9,57.2-56.9c31.6,0,57.2,25.5,57.2,56.9C1327.9,179.2,1303.8,204.1,1273.5,205.5
	L1273.5,205.5z"/>
</svg>
